<svg width="176" height="184" viewBox="0 0 176 184" fill="none" xmlns="http://www.w3.org/2000/svg">
<path d="M103.154 15.4844C104.198 15.4465 105.21 15.4721 106.191 15.5612C107.139 15.5555 108.104 15.5972 109.085 15.6863C111.141 15.8321 113.056 16.0263 114.828 16.2687C116.6 16.5112 118.215 16.7545 119.671 16.9988C120.778 17.1504 121.759 17.2394 122.613 17.2659C123.562 17.2603 124.462 17.1126 125.314 16.823C126.167 16.5333 127.065 16.0694 128.01 15.4313C129.017 14.6663 130.086 13.6164 131.217 12.2815C131.63 12.5636 132.042 12.8458 132.455 13.1279C132.836 13.3154 133.28 13.5341 133.787 13.7841C131.873 16.2305 130.243 18.7384 128.899 21.3079C127.522 23.7828 126.335 26.1932 125.337 28.5393C124.341 31.2015 123.47 33.7682 122.726 36.2393C122.077 38.6781 121.459 41.2117 120.874 43.8399C120.226 46.595 119.611 49.4448 119.028 52.3892C118.507 55.2068 118.095 57.7233 117.792 59.9387C117.742 62.2791 117.833 64.2551 118.064 65.8665C118.295 67.4779 118.541 68.9785 118.803 70.3684C118.999 71.5689 119.402 72.7524 120.01 73.9188C120.585 74.9906 121.951 76.0577 124.108 77.12C124.479 75.7264 125.154 74.916 126.133 74.6888C127.175 74.3347 128.076 74.3452 128.837 74.7201C129.788 75.0307 130.471 75.6433 130.888 76.5579C131.367 77.3456 131.499 78.1987 131.283 79.117C131.067 80.0354 130.629 80.9234 129.97 81.7812C129.311 82.6389 128.477 83.2922 127.468 83.7409C125.449 84.6384 123.249 84.2246 120.867 82.4995C119.85 81.6833 118.848 80.5983 117.859 79.2444C116.966 77.8583 116.228 76.155 115.647 74.1346C115.192 72.1766 114.832 70.0284 114.565 67.6898C114.393 65.3191 114.363 63.0582 114.477 60.9072C114.471 59.9585 114.401 58.8205 114.267 57.4931C114.227 56.1335 114.268 55.0106 114.389 54.1245L69.9378 69.2362C70.5872 72.0785 71.5386 75.1877 72.792 78.5639C74.0454 81.9402 75.4702 84.8885 77.0663 87.4089C79.1415 90.7169 81.5936 93.5801 84.4225 95.9982C87.2513 98.4164 90.2203 100.47 93.3295 102.159C96.3118 103.786 99.3395 105.08 102.413 106.042C105.581 106.972 108.794 107.57 112.053 107.835C118.476 108.397 125.016 107.441 131.674 104.967C134.828 103.683 137.981 102.083 141.132 100.167C144.283 98.2508 147.274 96.0194 150.105 93.4726C154.854 89.112 159.58 83.4391 164.282 76.454L167.707 78.1412C165.077 82.5209 162.569 86.3306 160.185 89.5704C157.769 92.7155 155.429 95.4648 153.167 97.8184C150.998 100.14 148.844 102.192 146.705 103.976C144.533 105.665 142.376 107.243 140.234 108.711C131.1 114.773 121.888 118.591 112.6 120.165C107.831 121.047 103.12 121.328 98.4698 121.008C93.9139 120.655 89.6081 119.796 85.5521 118.428C77.2168 115.347 70.6085 110.2 65.7272 102.988C63.0499 99.4617 60.8289 95.5695 59.0643 91.3108C57.2996 87.0522 56.0245 82.6799 55.2388 78.1941C54.4228 73.9298 54.0822 69.8208 54.2167 65.8671C54.4138 61.7865 54.9593 57.7987 55.8532 53.9037C56.9061 50.1659 58.2762 46.5843 59.9635 43.1589C61.7454 39.7014 63.8928 36.5421 66.4057 33.681C68.2273 31.583 70.1456 29.7691 72.1603 28.2392C74.0483 26.6468 76.0479 25.2276 78.1592 23.9817C80.2384 22.6412 82.3185 21.4587 84.3996 20.4344C90.8017 17.5186 97.0533 15.8686 103.154 15.4844ZM116.282 37.3212C116.011 34.3502 114.841 31.685 112.771 29.3256C111.561 27.9414 110.067 26.6537 108.289 25.4626C106.574 24.1446 104.576 23.2394 102.296 22.747C99.9843 22.16 97.4848 21.9535 94.7979 22.1276C92.2056 22.2695 89.8207 22.7106 87.6431 23.4509L87.217 23.5958C84.9769 24.4629 82.9754 25.5659 81.2125 26.9045C79.5442 28.211 77.9413 29.865 76.4037 31.8664C74.9607 33.8356 73.567 36.105 72.2225 38.6745C70.9726 41.2118 70.0087 43.9688 69.3307 46.9454C68.13 52.4234 68.1346 58.495 69.3443 65.1604L115.5 49.4692C115.436 49.2799 115.466 49.0583 115.591 48.8046C115.831 46.716 116.057 44.7382 116.267 42.8712C116.445 40.9095 116.45 39.0595 116.282 37.3212Z" fill="#BF8148"/>
<path d="M123.356 48.6728C123.343 48.7528 123.31 48.9128 123.256 49.1528C123.203 49.3795 123.143 49.6195 123.076 49.8728C123.023 50.1128 122.97 50.3395 122.916 50.5528C122.863 50.7661 122.83 50.8995 122.816 50.9528C122.79 50.9928 122.75 51.0128 122.696 51.0128C122.643 51.0128 122.603 51.0261 122.576 51.0528C120.87 50.9861 119.176 50.9528 117.496 50.9528C115.816 50.9528 114.123 50.9995 112.416 51.0928L112.336 51.0528L112.256 50.8528L112.436 50.7328C112.796 50.7061 113.103 50.5528 113.356 50.2728C113.623 49.9928 113.763 49.6728 113.776 49.3128C113.856 47.2461 113.89 45.1861 113.876 43.1328C113.876 41.0661 113.843 38.9995 113.776 36.9328C113.763 36.5595 113.63 36.2328 113.376 35.9528C113.123 35.6728 112.81 35.5195 112.436 35.4928C112.383 35.4528 112.323 35.4261 112.256 35.4128C112.19 35.3861 112.17 35.3395 112.196 35.2728C112.196 35.2195 112.23 35.1861 112.296 35.1728C112.376 35.1461 112.416 35.1328 112.416 35.1328C113.19 35.1861 113.956 35.2328 114.716 35.2728C115.476 35.2995 116.243 35.3128 117.016 35.3128C117.79 35.3128 118.556 35.2995 119.316 35.2728C120.076 35.2328 120.843 35.2128 121.616 35.2128C121.67 35.2128 121.71 35.2328 121.736 35.2728C121.776 35.3128 121.81 35.3461 121.836 35.3728C121.836 35.4928 121.83 35.6528 121.816 35.8528C121.816 36.0395 121.816 36.2328 121.816 36.4328C121.816 36.6328 121.81 36.8328 121.796 37.0328C121.796 37.2195 121.796 37.3728 121.796 37.4928C121.756 37.5995 121.683 37.6595 121.576 37.6728C121.47 37.6728 121.39 37.6195 121.336 37.5128C121.296 37.4461 121.263 37.3528 121.236 37.2328C121.223 37.0995 121.203 36.9728 121.176 36.8528C121.15 36.7195 121.11 36.6061 121.056 36.5128C121.003 36.4061 120.923 36.3528 120.816 36.3528C120.39 36.3395 119.963 36.3461 119.536 36.3728C119.123 36.3861 118.703 36.3995 118.276 36.4128C117.85 36.4128 117.423 36.4128 116.996 36.4128C116.583 36.4128 116.163 36.4061 115.736 36.3928C115.75 37.3928 115.763 38.3928 115.776 39.3928C115.79 40.3795 115.796 41.3728 115.796 42.3728H118.576C118.856 42.3728 119.103 42.2795 119.316 42.0928C119.543 41.8928 119.696 41.6595 119.776 41.3928L119.896 41.2928L120.096 41.2728L120.236 41.4328V44.4528C120.236 44.5728 120.17 44.6261 120.036 44.6128C119.916 44.5861 119.83 44.5461 119.776 44.4928C119.71 44.2128 119.57 43.9795 119.356 43.7928C119.143 43.5928 118.883 43.4928 118.576 43.4928H115.796C115.796 44.5595 115.79 45.6195 115.776 46.6728C115.763 47.7261 115.75 48.7861 115.736 49.8528C116.616 49.8261 117.49 49.8195 118.356 49.8328C119.223 49.8328 120.096 49.8461 120.976 49.8728C121.39 49.8861 121.79 49.7795 122.176 49.5528C122.55 49.3128 122.796 48.9728 122.916 48.5328L123.056 48.4528L123.256 48.4928L123.356 48.6728ZM124.416 57.4728C124.389 57.8328 124.362 58.1928 124.336 58.5528C124.322 58.9128 124.309 59.2728 124.296 59.6328C124.269 59.6861 124.222 59.7261 124.156 59.7528C124.102 59.7795 124.056 59.7995 124.016 59.8128L123.836 59.6928C123.809 59.5595 123.782 59.4195 123.756 59.2728C123.742 59.1128 123.709 58.9661 123.656 58.8328V58.8528C123.629 58.7061 123.576 58.6128 123.496 58.5728C123.416 58.5328 123.309 58.5061 123.176 58.4928C122.482 58.4795 121.782 58.4928 121.076 58.5328C120.382 58.5595 119.689 58.5728 118.996 58.5728C118.969 60.0395 118.949 61.4995 118.936 62.9528C118.936 64.3928 118.942 65.8395 118.956 67.2928C118.956 67.9861 118.956 68.6795 118.956 69.3728C118.956 70.0661 118.969 70.7528 118.996 71.4328C119.022 71.8061 119.156 72.1328 119.396 72.4128C119.649 72.6795 119.969 72.8061 120.356 72.7928L120.516 72.8528L120.536 73.0528L120.356 73.1528H117.256C117.002 73.1395 116.742 73.1395 116.476 73.1528C116.222 73.1661 115.969 73.1595 115.716 73.1328C115.662 73.1328 115.622 73.0995 115.596 73.0328C115.569 72.9528 115.549 72.8995 115.536 72.8728L115.716 72.7728C116.076 72.7728 116.382 72.6395 116.636 72.3728C116.902 72.1061 117.036 71.7928 117.036 71.4328C117.036 69.2861 117.036 67.1461 117.036 65.0128C117.036 62.8795 117.029 60.7395 117.016 58.5928C115.602 58.5928 114.196 58.5728 112.796 58.5328C112.396 58.5328 111.996 58.5861 111.596 58.6928C111.196 58.7995 110.842 58.9995 110.536 59.2928L110.376 59.3328L110.176 59.2128L110.196 59.0128C110.462 58.7461 110.722 58.4861 110.976 58.2328C111.229 57.9661 111.482 57.6995 111.736 57.4328L111.896 57.3928C114.669 57.4995 117.449 57.5195 120.236 57.4528C120.916 57.4395 121.582 57.4195 122.236 57.3928C122.889 57.3528 123.549 57.3261 124.216 57.3128C124.282 57.3128 124.322 57.3328 124.336 57.3728C124.362 57.3995 124.389 57.4328 124.416 57.4728ZM123.63 92.6728C123.603 92.7928 123.563 92.9595 123.51 93.1728C123.47 93.3861 123.423 93.6128 123.37 93.8528C123.316 94.0795 123.263 94.2995 123.21 94.5128C123.17 94.7128 123.13 94.8595 123.09 94.9528C123.076 94.9928 123.043 95.0195 122.99 95.0328C122.936 95.0328 122.89 95.0395 122.85 95.0528C121.143 94.9861 119.45 94.9528 117.77 94.9528C116.09 94.9528 114.396 94.9995 112.69 95.0928C112.636 95.0928 112.596 95.0661 112.57 95.0128C112.556 94.9461 112.543 94.8928 112.53 94.8528L112.71 94.7328C113.083 94.7061 113.39 94.5528 113.63 94.2728C113.883 93.9928 114.023 93.6728 114.05 93.3128C114.116 92.2461 114.143 91.1795 114.13 90.1128C114.13 89.0461 114.13 87.9861 114.13 86.9328C114.13 85.9328 114.13 84.9328 114.13 83.9328C114.143 82.9328 114.116 81.9328 114.05 80.9328C114.023 80.5061 113.89 80.1861 113.65 79.9728C113.41 79.7595 113.096 79.5995 112.71 79.4928C112.656 79.4795 112.61 79.4395 112.57 79.3728C112.543 79.2928 112.523 79.2395 112.51 79.2128L112.69 79.1328C113.69 79.1861 114.683 79.2261 115.67 79.2528C115.936 79.2661 116.203 79.2728 116.47 79.2728C116.75 79.2595 117.023 79.2661 117.29 79.2928C117.343 79.3061 117.383 79.3461 117.41 79.4128C117.436 79.4795 117.456 79.5261 117.47 79.5528L117.29 79.6528C116.916 79.6528 116.61 79.7861 116.37 80.0528C116.143 80.3061 116.03 80.6128 116.03 80.9728C116.016 81.6661 116.016 82.3595 116.03 83.0528C116.056 83.7461 116.07 84.4395 116.07 85.1328C116.083 86.5861 116.083 88.0395 116.07 89.4928C116.056 90.9461 116.036 92.3995 116.01 93.8528C116.89 93.8261 117.763 93.8261 118.63 93.8528C119.496 93.8661 120.37 93.8728 121.25 93.8728C121.676 93.8728 122.076 93.7595 122.45 93.5328C122.823 93.2928 123.07 92.9595 123.19 92.5328L123.33 92.4528L123.53 92.4928L123.63 92.6728ZM125.469 117.013L125.289 117.113C124.782 117.086 124.269 117.066 123.749 117.053C123.242 117.039 122.736 117.026 122.229 117.013C122.016 116.999 121.802 116.999 121.589 117.013C121.376 117.013 121.162 116.999 120.949 116.973C120.896 116.959 120.856 116.919 120.829 116.853C120.802 116.786 120.782 116.739 120.769 116.713L120.929 116.613C121.116 116.599 121.236 116.539 121.289 116.433C121.356 116.326 121.402 116.199 121.429 116.053C121.429 116.026 121.382 115.886 121.289 115.633C121.196 115.366 121.076 115.046 120.929 114.673C120.782 114.286 120.616 113.866 120.429 113.413C120.256 112.959 120.089 112.533 119.929 112.133C119.769 111.719 119.622 111.359 119.489 111.053C119.369 110.746 119.289 110.539 119.249 110.433H115.029C114.976 110.566 114.882 110.786 114.749 111.093C114.629 111.399 114.482 111.753 114.309 112.153C114.149 112.539 113.976 112.953 113.789 113.393C113.616 113.819 113.456 114.226 113.309 114.613C113.162 114.986 113.042 115.313 112.949 115.593C112.856 115.859 112.816 116.026 112.829 116.093C112.856 116.346 112.922 116.493 113.029 116.533C113.149 116.573 113.302 116.626 113.489 116.693V116.893L113.309 116.993C112.709 117.006 112.116 117.033 111.529 117.073C110.956 117.099 110.376 117.113 109.789 117.113C109.762 117.113 109.729 117.073 109.689 116.993C109.649 116.913 109.629 116.873 109.629 116.873L109.809 116.753C110.249 116.726 110.642 116.573 110.989 116.293C111.336 115.999 111.602 115.659 111.789 115.273V115.293C112.456 113.706 113.096 112.126 113.709 110.553C114.322 108.966 114.942 107.373 115.569 105.773L116.789 102.573C116.882 102.359 116.969 102.133 117.049 101.893C117.129 101.639 117.222 101.413 117.329 101.213C117.369 101.146 117.436 101.113 117.529 101.113C117.636 101.113 117.709 101.146 117.749 101.213L118.109 102.113L119.309 105.293C119.949 106.959 120.582 108.626 121.209 110.293C121.836 111.946 122.509 113.593 123.229 115.233C123.416 115.646 123.682 115.999 124.029 116.293C124.389 116.573 124.796 116.726 125.249 116.753L125.469 117.013ZM118.829 109.333L117.149 104.953C116.856 105.686 116.576 106.419 116.309 107.153C116.042 107.886 115.756 108.613 115.449 109.333C116.009 109.346 116.569 109.353 117.129 109.353C117.702 109.339 118.269 109.333 118.829 109.333ZM122.184 123.853C122.184 124.066 122.184 124.279 122.184 124.493C122.184 124.706 122.171 124.919 122.144 125.133C122.144 125.186 122.117 125.226 122.064 125.253C122.024 125.279 121.984 125.306 121.944 125.333L121.744 125.273C121.451 124.953 121.077 124.713 120.624 124.553C120.171 124.379 119.697 124.293 119.204 124.293C118.724 124.279 118.251 124.353 117.784 124.513C117.331 124.659 116.957 124.893 116.664 125.213C116.464 125.439 116.291 125.686 116.144 125.953C116.011 126.219 115.951 126.506 115.964 126.813C115.977 127.319 116.137 127.779 116.444 128.193C116.751 128.606 117.131 129.006 117.584 129.393C118.037 129.779 118.524 130.166 119.044 130.553C119.564 130.939 120.044 131.353 120.484 131.793C120.937 132.233 121.311 132.719 121.604 133.253C121.911 133.786 122.071 134.393 122.084 135.073C122.097 135.579 122.004 136.086 121.804 136.593C121.617 137.086 121.344 137.513 120.984 137.873C120.611 138.246 120.177 138.519 119.684 138.693C119.204 138.866 118.711 138.953 118.204 138.953C117.431 138.939 116.657 138.893 115.884 138.813C115.124 138.733 114.364 138.599 113.604 138.413L113.464 138.293C113.397 138.026 113.344 137.753 113.304 137.473C113.277 137.193 113.231 136.919 113.164 136.653L113.324 136.413L113.524 136.433C113.937 136.699 114.431 136.959 115.004 137.213C115.577 137.466 116.164 137.653 116.764 137.773C117.377 137.893 117.964 137.906 118.524 137.813C119.097 137.706 119.584 137.433 119.984 136.993C120.144 136.806 120.284 136.586 120.404 136.333C120.524 136.066 120.584 135.806 120.584 135.553C120.584 135.166 120.464 134.786 120.224 134.413C119.997 134.026 119.704 133.659 119.344 133.313C118.984 132.953 118.577 132.599 118.124 132.253C117.684 131.906 117.251 131.566 116.824 131.233C116.397 130.886 115.997 130.553 115.624 130.233C115.264 129.899 114.977 129.566 114.764 129.233C114.577 128.926 114.451 128.599 114.384 128.253C114.317 127.906 114.277 127.559 114.264 127.213C114.251 126.706 114.337 126.213 114.524 125.733C114.724 125.239 115.004 124.806 115.364 124.433C115.751 124.046 116.191 123.766 116.684 123.593C117.177 123.406 117.691 123.306 118.224 123.293C118.864 123.279 119.504 123.306 120.144 123.373C120.784 123.439 121.417 123.546 122.044 123.693L122.184 123.853Z" fill="white"/>
</svg>
