<svg width="34" height="42" viewBox="0 0 34 42" fill="none" xmlns="http://www.w3.org/2000/svg">
<path d="M2 30.1031V20.2062C2 17.5814 2.92539 15.0641 4.57259 13.2081C6.21979 11.352 8.45388 10.3093 10.7834 10.3093H22.4945C24.824 10.3093 27.0581 11.352 28.7053 13.2081C30.3525 15.0641 31.2779 17.5814 31.2779 20.2062V30.1031C31.2779 32.728 30.3525 35.2453 28.7053 37.1013C27.0581 38.9573 24.824 40 22.4945 40H10.7834C8.45388 40 6.21979 38.9573 4.57259 37.1013C2.92539 35.2453 2 32.728 2 30.1031Z" stroke="#003441" stroke-width="2.5"/>
<path d="M18.103 30.928V26.3094M18.103 26.3094V19.3816H22.2854C23.3306 19.3816 25.4225 19.3816 25.4225 22.8455C25.4225 26.3094 23.3306 26.3094 22.2854 26.3094M18.103 26.3094H22.2854M22.2854 26.3094L25.4225 30.928M15.1752 30.928L13.6074 26.8043L10.7835 19.3816L7.95968 26.8043M6.39185 30.928L7.95968 26.8043M7.95968 26.8043H13.6089" stroke="#003441" stroke-width="2.5" stroke-linecap="round" stroke-linejoin="round"/>
<path d="M32.7858 4.811H32.1787V3.43643C32.1787 1.53952 30.8187 0 29.1431 0C27.4674 0 26.1075 1.53952 26.1075 3.43643V4.811H25.5004C24.8325 4.811 24.2861 5.42955 24.2861 6.18557V13.0584C24.2861 13.8144 24.8325 14.433 25.5004 14.433H32.7858C33.4536 14.433 34 13.8144 34 13.0584V6.18557C34 5.42955 33.4536 4.811 32.7858 4.811ZM29.1431 10.9966C28.4753 10.9966 27.9289 10.378 27.9289 9.62199C27.9289 8.86598 28.4753 8.24742 29.1431 8.24742C29.8109 8.24742 30.3573 8.86598 30.3573 9.62199C30.3573 10.378 29.8109 10.9966 29.1431 10.9966ZM31.0252 4.811H27.261V3.43643C27.261 2.26117 28.1049 1.30584 29.1431 1.30584C30.1813 1.30584 31.0252 2.26117 31.0252 3.43643V4.811Z" fill="#BF8148"/>
</svg>
