<svg width="32" height="32" viewBox="0 0 32 32" fill="none" xmlns="http://www.w3.org/2000/svg">
<path d="M16.0003 2.66675C8.64033 2.66675 2.66699 8.64008 2.66699 16.0001C2.66699 23.3601 8.64033 29.3334 16.0003 29.3334C23.3603 29.3334 29.3337 23.3601 29.3337 16.0001C29.3337 8.64008 23.3603 2.66675 16.0003 2.66675ZM16.0003 26.6667C10.1203 26.6667 5.33366 21.8801 5.33366 16.0001C5.33366 10.1201 10.1203 5.33341 16.0003 5.33341C21.8803 5.33341 26.667 10.1201 26.667 16.0001C26.667 21.8801 21.8803 26.6667 16.0003 26.6667ZM22.1203 10.1067L13.3337 18.8934L9.88032 15.4534L8.00033 17.3334L13.3337 22.6667L24.0003 12.0001L22.1203 10.1067Z" fill="#003441"/>
</svg>
