<svg width="32" height="32" viewBox="0 0 32 32" fill="none" xmlns="http://www.w3.org/2000/svg">
<path d="M6.09998 6.09998C6.47503 5.72503 6.98365 5.5144 7.51398 5.5144C8.04431 5.5144 8.55292 5.72503 8.92798 6.09998L16 13.172L23.072 6.09998C23.4492 5.73566 23.9544 5.53407 24.4788 5.53863C25.0032 5.54319 25.5048 5.75352 25.8756 6.12434C26.2464 6.49516 26.4568 6.99678 26.4613 7.52118C26.4659 8.04557 26.2643 8.55077 25.9 8.92798L18.828 16L25.9 23.072C26.2643 23.4492 26.4659 23.9544 26.4613 24.4788C26.4568 25.0032 26.2464 25.5048 25.8756 25.8756C25.5048 26.2464 25.0032 26.4568 24.4788 26.4613C23.9544 26.4659 23.4492 26.2643 23.072 25.9L16 18.828L8.92798 25.9C8.55077 26.2643 8.04557 26.4659 7.52118 26.4613C6.99678 26.4568 6.49516 26.2464 6.12434 25.8756C5.75352 25.5048 5.54319 25.0032 5.53863 24.4788C5.53407 23.9544 5.73566 23.4492 6.09998 23.072L13.172 16L6.09998 8.92798C5.72503 8.55292 5.5144 8.04431 5.5144 7.51398C5.5144 6.98365 5.72503 6.47503 6.09998 6.09998Z" fill="white"/>
</svg>
