<svg width="33" height="32" viewBox="0 0 33 32" fill="none" xmlns="http://www.w3.org/2000/svg">
<path d="M16.8546 12.006C17.5587 12.006 18.2559 12.144 18.9064 12.412C19.557 12.6801 20.148 13.073 20.6459 13.5683C21.1438 14.0636 21.5387 14.6516 21.8082 15.2988C22.0776 15.9459 22.2163 16.6395 22.2163 17.34C22.2163 18.0405 22.0776 18.7341 21.8082 19.3812C21.5387 20.0284 21.1438 20.6164 20.6459 21.1117C20.148 21.607 19.557 21.9999 18.9064 22.268C18.2559 22.536 17.5587 22.674 16.8546 22.674C15.4326 22.674 14.0688 22.112 13.0633 21.1117C12.0578 20.1114 11.4929 18.7547 11.4929 17.34C11.4929 15.9253 12.0578 14.5686 13.0633 13.5683C14.0688 12.568 15.4326 12.006 16.8546 12.006ZM16.8546 14.006C15.9658 14.006 15.1134 14.3572 14.4849 14.9825C13.8564 15.6077 13.5033 16.4558 13.5033 17.34C13.5033 18.2242 13.8564 19.0722 14.4849 19.6975C15.1134 20.3227 15.9658 20.674 16.8546 20.674C17.7434 20.674 18.5959 20.3227 19.2244 19.6975C19.8528 19.0722 20.2059 18.2242 20.2059 17.34C20.2059 16.4558 19.8528 15.6077 19.2244 14.9825C18.5959 14.3572 17.7434 14.006 16.8546 14.006ZM16.8546 7.33398C23.0386 7.33398 28.3741 11.534 29.8558 17.42C29.8912 17.5485 29.9005 17.6828 29.883 17.8149C29.8655 17.947 29.8217 18.0744 29.754 18.1894C29.6864 18.3044 29.5963 18.4049 29.4891 18.4848C29.3819 18.5647 29.2597 18.6224 29.1297 18.6547C28.9997 18.687 28.8646 18.6931 28.7322 18.6726C28.5998 18.6522 28.4729 18.6056 28.3589 18.5357C28.2448 18.4657 28.146 18.3738 28.0682 18.2653C27.9904 18.1569 27.9351 18.034 27.9057 17.904C27.2837 15.4565 25.8585 13.2856 23.8559 11.735C21.8534 10.1844 19.3881 9.34296 16.8505 9.34387C14.3129 9.34479 11.8481 10.1881 9.84676 11.7401C7.84537 13.2921 6.42177 15.4641 5.80149 17.912C5.73517 18.1676 5.56995 18.3867 5.34186 18.5216C5.11378 18.6565 4.84132 18.6962 4.58393 18.6321C4.32653 18.5679 4.10507 18.4051 3.96785 18.1792C3.83063 17.9533 3.78877 17.6825 3.85141 17.426C4.57856 14.5429 6.25293 11.9841 8.60872 10.1557C10.9645 8.32733 13.8667 7.33421 16.8546 7.33398Z" fill="#515151"/>
</svg>
