<svg width="124" height="182" viewBox="0 0 124 182" fill="none" xmlns="http://www.w3.org/2000/svg">
<path d="M85.752 21.3954C87.1431 21.3449 88.4926 21.379 89.8004 21.4978C91.0653 21.4902 92.3516 21.5458 93.6594 21.6645C96.4013 21.859 98.9537 22.1179 101.317 22.4411C103.68 22.7644 105.832 23.0889 107.774 23.4146C109.251 23.6167 110.559 23.7354 111.697 23.7708C112.962 23.7632 114.163 23.5664 115.299 23.1801C116.435 22.7939 117.633 22.1754 118.893 21.3246C120.236 20.3046 121.661 18.9047 123.169 17.1248C123.719 17.501 124.269 17.8772 124.82 18.2534C125.327 18.5034 125.919 18.795 126.596 19.1283C124.043 22.3902 121.871 25.7341 120.078 29.1601C118.242 32.4599 116.659 35.6738 115.329 38.8019C114 42.3516 112.84 45.7738 111.848 49.0685C110.982 52.3204 110.159 55.6984 109.378 59.2027C108.515 62.8762 107.694 66.6759 106.916 70.6018C106.222 74.3585 105.673 77.7139 105.269 80.6678C105.203 83.7884 105.324 86.4229 105.632 88.5715C105.94 90.72 106.268 92.7209 106.616 94.5741C106.879 96.1747 107.415 97.7527 108.226 99.308C108.993 100.737 110.815 102.16 113.69 103.576C114.185 101.718 115.085 100.637 116.391 100.335C117.779 99.8625 118.981 99.8764 119.996 100.376C121.263 100.79 122.175 101.607 122.73 102.827C123.369 103.877 123.544 105.014 123.256 106.239C122.968 107.463 122.385 108.647 121.507 109.791C120.628 110.935 119.516 111.806 118.17 112.404C115.479 113.601 112.545 113.049 109.369 110.749C108.013 109.661 106.676 108.214 105.359 106.409C104.167 104.561 103.184 102.289 102.409 99.5956C101.803 96.985 101.322 94.1207 100.966 91.0026C100.736 87.8417 100.697 84.8271 100.849 81.9591C100.841 80.6942 100.748 79.1768 100.569 77.407C100.516 75.5942 100.57 74.097 100.732 72.9155L41.4632 93.0645C42.3291 96.8542 43.5976 101 45.2688 105.501C46.94 110.003 48.8397 113.934 50.968 117.295C53.7349 121.705 57.0043 125.523 60.7761 128.747C64.548 131.971 68.5066 134.71 72.6522 136.962C76.6285 139.131 80.6655 140.856 84.7631 142.139C88.9869 143.379 93.2714 144.176 97.6164 144.529C106.18 145.279 114.901 144.005 123.778 140.705C127.984 138.994 132.188 136.86 136.389 134.305C140.59 131.751 144.578 128.775 148.353 125.38C154.685 119.565 160.986 112.002 167.255 102.688L171.822 104.938C168.315 110.777 164.972 115.857 161.793 120.177C158.572 124.37 155.452 128.036 152.435 131.174C149.544 134.269 146.672 137.006 143.819 139.384C140.923 141.636 138.047 143.74 135.192 145.697C123.012 153.781 110.731 158.871 98.3467 160.969C91.9869 162.145 85.7066 162.52 79.5059 162.093C73.4314 161.623 67.6902 160.477 62.2823 158.654C51.1686 154.546 42.3576 147.683 35.8492 138.066C32.2794 133.365 29.318 128.175 26.9652 122.497C24.6124 116.819 22.9122 110.989 21.8646 105.008C20.7766 99.3226 20.3224 93.8439 20.5018 88.5723C20.7646 83.1315 21.4919 77.8144 22.6837 72.6211C24.0877 67.6374 25.9145 62.8619 28.1642 58.2948C30.5401 53.6847 33.4033 49.4723 36.7537 45.6575C39.1826 42.8602 41.7403 40.4416 44.4266 38.4017C46.9439 36.2785 49.61 34.3863 52.4252 32.7252C55.1974 30.9378 57.9709 29.3612 60.7456 27.9954C69.2818 24.1076 77.6173 21.9076 85.752 21.3954ZM103.255 50.5111C102.894 46.5498 101.334 42.9962 98.5744 39.8503C96.9612 38.0047 94.9692 36.2878 92.5986 34.6997C90.3112 32.9424 87.6477 31.7354 84.6079 31.0789C81.5253 30.2961 78.1926 30.0208 74.61 30.253C71.1537 30.4422 67.9738 31.0304 65.0703 32.0174L64.5022 32.2105C61.5154 33.3668 58.8467 34.8373 56.4962 36.6222C54.2718 38.3642 52.1346 40.5695 50.0844 43.2381C48.1604 45.8637 46.3021 48.8895 44.5095 52.3155C42.843 55.6986 41.5578 59.3745 40.6538 63.3434C39.0529 70.6474 39.0589 78.7429 40.6719 87.63L102.213 66.7085C102.127 66.456 102.167 66.1606 102.334 65.8223C102.655 63.0375 102.955 60.4005 103.236 57.9111C103.473 55.2955 103.48 52.8288 103.255 50.5111Z" fill="#BF8148" fill-opacity="0.5"/>
</svg>
