<svg width="17" height="17" viewBox="0 0 17 17" fill="none" xmlns="http://www.w3.org/2000/svg">
<path d="M11.1596 1.05572C11.6919 0.515359 12.4139 0.211745 13.1667 0.21167C13.9196 0.211594 14.6416 0.515063 15.174 1.05532C15.7064 1.59557 16.0056 2.32835 16.0057 3.09246C16.0057 3.85657 15.7067 4.58941 15.1744 5.12977L14.4668 5.84796L10.4527 1.77391L11.1596 1.05572ZM9.61185 2.62737L1.67892 10.6781C1.35655 11.0054 1.12999 11.417 1.02445 11.8673L0.155796 15.5717C0.132277 15.6721 0.134482 15.7769 0.162202 15.8762C0.189922 15.9754 0.242232 16.0658 0.314144 16.1387C0.386056 16.2116 0.475172 16.2646 0.572992 16.2926C0.670813 16.3207 0.774076 16.3228 0.872934 16.2988L4.52288 15.4172C4.96658 15.3099 5.37221 15.0796 5.69457 14.7521L13.6259 6.70303L9.61106 2.62737H9.61185Z" fill="#ABAAAA"/>
</svg>
