<svg width="48" height="47" viewBox="0 0 48 47" fill="none" xmlns="http://www.w3.org/2000/svg">
<g clip-path="url(#clip0_22_168)">
<g clip-path="url(#clip1_22_168)">
<path d="M48.0003 24.7917C48.0003 11.8142 37.2543 1.29443 24.0003 1.29443C10.7403 1.29735 -0.0057373 11.8142 -0.0057373 24.7947C-0.0057373 36.5199 8.77226 46.2399 20.2443 48.003V31.5841H14.1543V24.7947H20.2503V19.6136C20.2503 13.7261 23.8353 10.4744 29.3163 10.4744C31.9443 10.4744 34.6893 10.9327 34.6893 10.9327V16.7122H31.6623C28.6833 16.7122 27.7533 18.5248 27.7533 20.3842V24.7917H34.4073L33.3453 31.5811H27.7503V48.0001C39.2223 46.237 48.0003 36.517 48.0003 24.7917Z" fill="white"/>
</g>
</g>
<defs>
<clipPath id="clip0_22_168">
<rect width="48" height="46.7027" fill="white"/>
</clipPath>
<clipPath id="clip1_22_168">
<rect width="48" height="46.7027" fill="white" transform="translate(0 1.29724)"/>
</clipPath>
</defs>
</svg>
