<svg width="24" height="24" viewBox="0 0 24 24" fill="none" xmlns="http://www.w3.org/2000/svg">
<path d="M12 21.375C11.8069 21.3741 11.617 21.3258 11.4469 21.2344C11.0438 21 1.5 15.5813 1.5 8.62503C1.49871 7.40576 1.86891 6.21503 2.5613 5.21142C3.25369 4.20782 4.2354 3.43898 5.3757 3.00729C6.516 2.57561 7.76075 2.50158 8.94417 2.79505C10.1276 3.08852 11.1935 3.73558 12 4.65003C12.8065 3.73558 13.8724 3.08852 15.0558 2.79505C16.2393 2.50158 17.484 2.57561 18.6243 3.00729C19.7646 3.43898 20.7463 4.20782 21.4387 5.21142C22.1311 6.21503 22.5013 7.40576 22.5 8.62503C22.5 15.5813 12.9563 21 12.5531 21.2344C12.383 21.3258 12.1931 21.3741 12 21.375ZM7.5 4.87503C6.50544 4.87503 5.55161 5.27012 4.84835 5.97338C4.14509 6.67664 3.75 7.63047 3.75 8.62503C3.75 13.425 10.0688 17.7375 12 18.9375C13.9313 17.7375 20.25 13.425 20.25 8.62503C20.2491 7.75892 19.9485 6.91982 19.3992 6.25023C18.8498 5.58063 18.0856 5.12184 17.2364 4.95177C16.3871 4.7817 15.5052 4.91084 14.7403 5.31725C13.9755 5.72367 13.3749 6.3823 13.0406 7.18128C12.9559 7.38762 12.8117 7.5641 12.6264 7.6883C12.4411 7.8125 12.2231 7.87882 12 7.87882C11.7769 7.87882 11.5589 7.8125 11.3736 7.6883C11.1883 7.5641 11.0441 7.38762 10.9594 7.18128C10.6756 6.49776 10.1954 5.91379 9.57962 5.50326C8.96383 5.09274 8.24009 4.8741 7.5 4.87503Z" fill="#003441"/>
</svg>
