<svg width="64" height="64" viewBox="0 0 64 64" fill="none" xmlns="http://www.w3.org/2000/svg">
<rect width="64" height="64" rx="20" fill="#BF8148"/>
<path d="M50.2853 21.7143H25.1424M20.571 21.7143H13.7139M50.2853 44.5714H25.1424M20.571 44.5714H13.7139M38.8567 33.1428H13.7139M50.2853 33.1428H43.4282M22.8567 17.1428C23.4629 17.1428 24.0443 17.3836 24.473 17.8123C24.9016 18.2409 25.1424 18.8223 25.1424 19.4285V24C25.1424 24.6062 24.9016 25.1876 24.473 25.6162C24.0443 26.0449 23.4629 26.2857 22.8567 26.2857C22.2505 26.2857 21.6691 26.0449 21.2405 25.6162C20.8118 25.1876 20.571 24.6062 20.571 24V19.4285C20.571 18.8223 20.8118 18.2409 21.2405 17.8123C21.6691 17.3836 22.2505 17.1428 22.8567 17.1428ZM22.8567 40C23.4629 40 24.0443 40.2408 24.473 40.6694C24.9016 41.0981 25.1424 41.6795 25.1424 42.2857V46.8571C25.1424 47.4633 24.9016 48.0447 24.473 48.4734C24.0443 48.902 23.4629 49.1428 22.8567 49.1428C22.2505 49.1428 21.6691 48.902 21.2405 48.4734C20.8118 48.0447 20.571 47.4633 20.571 46.8571V42.2857C20.571 41.6795 20.8118 41.0981 21.2405 40.6694C21.6691 40.2408 22.2505 40 22.8567 40ZM41.1424 28.5714C41.7486 28.5714 42.33 28.8122 42.7587 29.2409C43.1873 29.6695 43.4282 30.2509 43.4282 30.8571V35.4285C43.4282 36.0347 43.1873 36.6161 42.7587 37.0448C42.33 37.4734 41.7486 37.7143 41.1424 37.7143C40.5362 37.7143 39.9549 37.4734 39.5262 37.0448C39.0975 36.6161 38.8567 36.0347 38.8567 35.4285V30.8571C38.8567 30.2509 39.0975 29.6695 39.5262 29.2409C39.9549 28.8122 40.5362 28.5714 41.1424 28.5714Z" stroke="white" stroke-linecap="round" stroke-linejoin="round"/>
</svg>
