<svg width="48" height="47" viewBox="0 0 48 47" fill="none" xmlns="http://www.w3.org/2000/svg">
<g clip-path="url(#clip0_22_164)">
<path fill-rule="evenodd" clip-rule="evenodd" d="M24 0C10.744 0 0 10.4556 0 23.3514C0 36.2471 10.744 46.7027 24 46.7027C37.254 46.7027 48 36.2471 48 23.3514C48 10.4556 37.254 0 24 0ZM24.28 37.008C16.544 37.008 10.28 30.8977 10.28 23.3514C10.28 15.805 16.544 9.6947 24.28 9.6947C28.06 9.6947 31.22 11.051 33.644 13.2538L29.696 17.1029V17.0951C28.226 15.7291 26.362 15.0285 24.28 15.0285C19.66 15.0285 15.906 18.8348 15.906 23.3436C15.906 27.8484 19.66 31.6664 24.28 31.6664C28.472 31.6664 31.324 29.3273 31.912 26.1165H24.28V20.7905H37.45C37.626 21.7051 37.72 22.6586 37.72 23.6588C37.72 31.4621 32.366 37.008 24.28 37.008Z" fill="white"/>
</g>
<defs>
<clipPath id="clip0_22_164">
<rect width="48" height="46.7027" fill="white"/>
</clipPath>
</defs>
</svg>
