<svg width="66" height="65" viewBox="0 0 66 65" fill="none" xmlns="http://www.w3.org/2000/svg">
<ellipse cx="33" cy="32.5" rx="33" ry="32.5" fill="#BF8148"/>
<g clip-path="url(#clip0_304_750)">
<path d="M33 59.1875C25.806 59.1875 18.9067 56.3758 13.8197 51.3709C8.7328 46.366 5.875 39.578 5.875 32.5C5.875 25.422 8.7328 18.634 13.8197 13.6291C18.9067 8.62421 25.806 5.8125 33 5.8125C40.194 5.8125 47.0933 8.62421 52.1803 13.6291C57.2672 18.634 60.125 25.422 60.125 32.5C60.125 39.578 57.2672 46.366 52.1803 51.3709C47.0933 56.3758 40.194 59.1875 33 59.1875ZM33 63C41.2217 63 49.1067 59.7866 54.9203 54.0668C60.7339 48.3469 64 40.5891 64 32.5C64 24.4109 60.7339 16.6531 54.9203 10.9332C49.1067 5.21338 41.2217 2 33 2C24.7783 2 16.8933 5.21338 11.0797 10.9332C5.26606 16.6531 2 24.4109 2 32.5C2 40.5891 5.26606 48.3469 11.0797 54.0668C16.8933 59.7866 24.7783 63 33 63Z" fill="black"/>
<path d="M22.3631 24.0591C22.3578 24.1822 22.3782 24.3051 22.4229 24.4202C22.4677 24.5353 22.5359 24.6402 22.6234 24.7284C22.7108 24.8166 22.8157 24.8863 22.9316 24.9331C23.0474 24.98 23.1718 25.003 23.297 25.0008H26.4939C27.0286 25.0008 27.4549 24.57 27.5246 24.0477C27.8734 21.5467 29.6171 19.7243 32.7249 19.7243C35.3831 19.7243 37.8166 21.032 37.8166 24.1773C37.8166 26.5983 36.3674 27.7115 34.0773 29.4043C31.4694 31.2686 29.404 33.4455 29.5513 36.9797L29.5629 37.807C29.5669 38.0571 29.6708 38.2957 29.852 38.4711C30.0333 38.6466 30.2774 38.7449 30.5316 38.7449H33.6743C33.9312 38.7449 34.1776 38.6445 34.3593 38.4657C34.5409 38.287 34.643 38.0445 34.643 37.7917V37.3914C34.643 34.6541 35.7009 33.8573 38.5568 31.7261C40.9166 29.9609 43.3773 28.0013 43.3773 23.8876C43.3773 18.1269 38.4328 15.3438 33.0194 15.3438C28.1098 15.3438 22.7313 17.5931 22.3631 24.0591ZM28.3965 46.0306C28.3965 48.0626 30.0434 49.5648 32.3103 49.5648C34.6701 49.5648 36.2938 48.0626 36.2938 46.0306C36.2938 43.9261 34.6663 42.4468 32.3064 42.4468C30.0434 42.4468 28.3965 43.9261 28.3965 46.0306Z" fill="black"/>
</g>
<defs>
<clipPath id="clip0_304_750">
<rect width="62" height="61" fill="white" transform="translate(2 2)"/>
</clipPath>
</defs>
</svg>
