<svg width="33" height="32" viewBox="0 0 33 32" fill="none" xmlns="http://www.w3.org/2000/svg">
<path d="M8.16362 24.6667H12.1823V16.6667H20.2197V24.6667H24.2384V12.6667L16.201 6.66667L8.16362 12.6667V24.6667ZM8.16362 27.3333C7.42686 27.3333 6.79638 27.0724 6.27216 26.5507C5.74705 26.028 5.4845 25.4 5.4845 24.6667V12.6667C5.4845 12.2444 5.57961 11.8444 5.76982 11.4667C5.95915 11.0889 6.22126 10.7778 6.55615 10.5333L14.5935 4.53333C14.8391 4.35556 15.0959 4.22222 15.3638 4.13333C15.6317 4.04444 15.9108 4 16.201 4C16.4912 4 16.7703 4.04444 17.0382 4.13333C17.3061 4.22222 17.5629 4.35556 17.8085 4.53333L25.8459 10.5333C26.1808 10.7778 26.4433 11.0889 26.6335 11.4667C26.8229 11.8444 26.9175 12.2444 26.9175 12.6667V24.6667C26.9175 25.4 26.6554 26.028 26.1312 26.5507C25.6061 27.0724 24.9752 27.3333 24.2384 27.3333H17.5406V19.3333H14.8614V27.3333H8.16362Z" fill="#003441"/>
</svg>
