<svg width="32" height="32" viewBox="0 0 32 32" fill="none" xmlns="http://www.w3.org/2000/svg">
<path d="M6.10022 6.09998C6.47528 5.72503 6.98389 5.5144 7.51422 5.5144C8.04455 5.5144 8.55317 5.72503 8.92822 6.09998L16.0002 13.172L23.0722 6.09998C23.4494 5.73566 23.9546 5.53407 24.479 5.53863C25.0034 5.54319 25.505 5.75352 25.8759 6.12434C26.2467 6.49516 26.457 6.99678 26.4616 7.52118C26.4661 8.04557 26.2645 8.55077 25.9002 8.92798L18.8282 16L25.9002 23.072C26.2645 23.4492 26.4661 23.9544 26.4616 24.4788C26.457 25.0032 26.2467 25.5048 25.8759 25.8756C25.505 26.2464 25.0034 26.4568 24.479 26.4613C23.9546 26.4659 23.4494 26.2643 23.0722 25.9L16.0002 18.828L8.92822 25.9C8.55102 26.2643 8.04581 26.4659 7.52142 26.4613C6.99703 26.4568 6.4954 26.2464 6.12458 25.8756C5.75377 25.5048 5.54343 25.0032 5.53887 24.4788C5.53432 23.9544 5.73591 23.4492 6.10022 23.072L13.1722 16L6.10022 8.92798C5.72528 8.55292 5.51465 8.04431 5.51465 7.51398C5.51465 6.98365 5.72528 6.47503 6.10022 6.09998Z" fill="#003441"/>
</svg>
