<svg width="24" height="24" viewBox="0 0 24 24" fill="none" xmlns="http://www.w3.org/2000/svg">
<path d="M7.15039 21.1C6.90039 20.85 6.77539 20.554 6.77539 20.212C6.77539 19.8707 6.90039 19.575 7.15039 19.325L14.4754 12L7.12539 4.65C6.89206 4.41667 6.77539 4.125 6.77539 3.775C6.77539 3.425 6.90039 3.125 7.15039 2.875C7.40039 2.625 7.69639 2.5 8.03839 2.5C8.37972 2.5 8.67539 2.625 8.92539 2.875L17.3254 11.3C17.4254 11.4 17.4964 11.5083 17.5384 11.625C17.5797 11.7417 17.6004 11.8667 17.6004 12C17.6004 12.1333 17.5797 12.2583 17.5384 12.375C17.4964 12.4917 17.4254 12.6 17.3254 12.7L8.90039 21.125C8.66706 21.3583 8.37972 21.475 8.03839 21.475C7.69639 21.475 7.40039 21.35 7.15039 21.1Z" fill="#003441"/>
</svg>
