<svg width="29" height="19" viewBox="0 0 29 19" fill="none" xmlns="http://www.w3.org/2000/svg">
<path fill-rule="evenodd" clip-rule="evenodd" d="M28.1396 9.1035C28.1396 8.83656 28.0338 8.58056 27.8454 8.39181C27.657 8.20306 27.4014 8.09702 27.135 8.09702L3.43876 8.09702L9.76217 1.76425C9.95082 1.57526 10.0568 1.31893 10.0568 1.05166C10.0568 0.784391 9.95082 0.528065 9.76217 0.339075C9.57352 0.150085 9.31766 0.0439124 9.05086 0.0439124C8.78407 0.0439124 8.52821 0.150085 8.33956 0.339075L0.302172 8.39091C0.208611 8.4844 0.13438 8.59547 0.083732 8.71775C0.0330835 8.84003 0.00701252 8.97111 0.00701252 9.1035C0.00701251 9.23589 0.0330835 9.36697 0.0837319 9.48925C0.13438 9.61153 0.208611 9.72259 0.302172 9.81609L8.33956 17.8679C8.52821 18.0569 8.78407 18.1631 9.05086 18.1631C9.31766 18.1631 9.57352 18.0569 9.76217 17.8679C9.95082 17.6789 10.0568 17.4226 10.0568 17.1553C10.0568 16.8881 9.95082 16.6317 9.76217 16.4427L3.43876 10.11L27.135 10.11C27.4014 10.11 27.657 10.0039 27.8454 9.81519C28.0338 9.62644 28.1396 9.37043 28.1396 9.1035V9.1035Z" fill="#003441"/>
</svg>
