<svg width="33" height="33" viewBox="0 0 33 33" fill="none" xmlns="http://www.w3.org/2000/svg">
<path fill-rule="evenodd" clip-rule="evenodd" d="M30.9906 16.8962C30.9906 16.6293 30.8848 16.3733 30.6963 16.1845C30.5079 15.9958 30.2524 15.8897 29.9859 15.8897L6.28971 15.8897L12.6131 9.55698C12.8018 9.36799 12.9078 9.11166 12.9078 8.84439C12.9078 8.57712 12.8018 8.32079 12.6131 8.1318C12.4245 7.94281 12.1686 7.83664 11.9018 7.83664C11.635 7.83664 11.3792 7.94281 11.1905 8.1318L3.15312 16.1836C3.05956 16.2771 2.98533 16.3882 2.93468 16.5105C2.88404 16.6328 2.85796 16.7638 2.85796 16.8962C2.85796 17.0286 2.88404 17.1597 2.93468 17.282C2.98533 17.4042 3.05956 17.5153 3.15312 17.6088L11.1905 25.6606C11.3792 25.8496 11.635 25.9558 11.9018 25.9558C12.1686 25.9558 12.4245 25.8496 12.6131 25.6606C12.8018 25.4717 12.9078 25.2153 12.9078 24.9481C12.9078 24.6808 12.8018 24.4245 12.6131 24.2355L6.28971 17.9027L29.9859 17.9027C30.2524 17.9027 30.5079 17.7967 30.6963 17.6079C30.8848 17.4192 30.9906 17.1632 30.9906 16.8962Z" fill="white"/>
</svg>
