<svg width="32" height="32" viewBox="0 0 32 32" fill="none" xmlns="http://www.w3.org/2000/svg">
<path fill-rule="evenodd" clip-rule="evenodd" d="M4.66699 12.7573V19.2427C4.66699 22.3013 4.66699 23.8293 5.62966 24.78C6.50299 25.6427 7.86166 25.7213 10.4243 25.7293C10.2897 24.8293 10.2617 23.756 10.2537 22.492C10.2537 22.3634 10.279 22.236 10.3283 22.1172C10.3775 21.9983 10.4498 21.8904 10.5408 21.7995C10.6318 21.7086 10.7398 21.6366 10.8587 21.5874C10.9776 21.5383 11.105 21.5132 11.2337 21.5133C11.3624 21.5117 11.4901 21.5355 11.6096 21.5833C11.7291 21.6311 11.838 21.702 11.9302 21.7919C12.0223 21.8818 12.0958 21.9889 12.1465 22.1072C12.1972 22.2255 12.2241 22.3526 12.2257 22.4813C12.2337 23.9 12.2697 24.9053 12.4123 25.668C12.5497 26.404 12.7683 26.828 13.0883 27.1453C13.4523 27.5053 13.963 27.7387 14.9283 27.8653C15.9203 27.9987 17.235 28 19.1217 28H20.435C22.3217 28 23.6363 27.9973 24.6297 27.8667C25.5937 27.7387 26.1043 27.504 26.467 27.1453C26.831 26.7853 27.0683 26.2813 27.1977 25.3293C27.331 24.3507 27.3337 23.0507 27.3337 21.1893V10.8107C27.3337 8.948 27.331 7.65067 27.1977 6.66933C27.0683 5.71867 26.831 5.21333 26.4683 4.856C26.1043 4.496 25.5937 4.26133 24.6283 4.13333C23.6363 4.00267 22.3217 4 20.435 4H19.1217C17.235 4 15.9203 4.00267 14.927 4.13333C13.963 4.26133 13.4523 4.496 13.0883 4.85467C12.7683 5.17067 12.5497 5.596 12.4123 6.332C12.2697 7.09467 12.2337 8.1 12.2257 9.51867C12.2241 9.64737 12.1972 9.77449 12.1465 9.8928C12.0958 10.0111 12.0223 10.1182 11.9302 10.2081C11.838 10.298 11.7291 10.3689 11.6096 10.4167C11.4901 10.4645 11.3624 10.4883 11.2337 10.4867C11.105 10.4868 10.9776 10.4617 10.8587 10.4126C10.7398 10.3634 10.6318 10.2914 10.5408 10.2005C10.4498 10.1096 10.3775 10.0017 10.3283 9.88283C10.279 9.764 10.2537 9.63663 10.2537 9.508C10.2617 8.244 10.2897 7.17067 10.4243 6.27067C7.86166 6.27867 6.50433 6.35733 5.62966 7.22C4.66699 8.17067 4.66699 9.7 4.66699 12.7573ZM7.91233 16.688C7.82089 16.5983 7.74826 16.4912 7.69868 16.3731C7.6491 16.2549 7.62357 16.1281 7.62357 16C7.62357 15.8719 7.6491 15.7451 7.69868 15.6269C7.74826 15.5088 7.82089 15.4017 7.91233 15.312L10.539 12.7173C10.725 12.5344 10.9755 12.432 11.2363 12.432C11.4972 12.432 11.7476 12.5344 11.9337 12.7173C12.0251 12.8071 12.0977 12.9141 12.1473 13.0323C12.1969 13.1504 12.2224 13.2772 12.2224 13.4053C12.2224 13.5334 12.1969 13.6603 12.1473 13.7784C12.0977 13.8965 12.0251 14.0036 11.9337 14.0933L10.987 15.0267H20.435C20.979 15.0267 21.4217 15.4627 21.4217 16C21.4217 16.5373 20.979 16.9733 20.435 16.9733H10.987L11.9337 17.9067C12.0251 17.9964 12.0977 18.1035 12.1473 18.2216C12.1969 18.3397 12.2224 18.4666 12.2224 18.5947C12.2224 18.7228 12.1969 18.8496 12.1473 18.9677C12.0977 19.0859 12.0251 19.1929 11.9337 19.2827C11.7476 19.4656 11.4972 19.568 11.2363 19.568C10.9755 19.568 10.725 19.4656 10.539 19.2827L7.91233 16.688Z" fill="#003441"/>
</svg>
