<svg width="40" height="17" viewBox="0 0 40 17" fill="none" xmlns="http://www.w3.org/2000/svg">
<path d="M10 0.5H31.5C35.9183 0.5 39.5 4.08172 39.5 8.5C39.5 12.9183 35.9183 16.5 31.5 16.5H0.5V10C0.5 4.75329 4.75329 0.5 10 0.5Z" stroke="#BF8148"/>
<path d="M14.7 4.6V13H13.104L8.916 7.9V13H6.996V4.6H8.604L12.78 9.7V4.6H14.7ZM22.8794 9.796C22.8794 9.82 22.8674 9.988 22.8434 10.3H17.9594C18.0474 10.7 18.2554 11.016 18.5834 11.248C18.9114 11.48 19.3194 11.596 19.8074 11.596C20.1434 11.596 20.4394 11.548 20.6954 11.452C20.9594 11.348 21.2034 11.188 21.4274 10.972L22.4234 12.052C21.8154 12.748 20.9274 13.096 19.7594 13.096C19.0314 13.096 18.3874 12.956 17.8274 12.676C17.2674 12.388 16.8354 11.992 16.5314 11.488C16.2274 10.984 16.0754 10.412 16.0754 9.772C16.0754 9.14 16.2234 8.572 16.5194 8.068C16.8234 7.556 17.2354 7.16 17.7554 6.88C18.2834 6.592 18.8714 6.448 19.5194 6.448C20.1514 6.448 20.7234 6.584 21.2354 6.856C21.7474 7.128 22.1474 7.52 22.4354 8.032C22.7314 8.536 22.8794 9.124 22.8794 9.796ZM19.5314 7.864C19.1074 7.864 18.7514 7.984 18.4634 8.224C18.1754 8.464 17.9994 8.792 17.9354 9.208H21.1154C21.0514 8.8 20.8754 8.476 20.5874 8.236C20.2994 7.988 19.9474 7.864 19.5314 7.864ZM34.3765 6.544L32.0365 13H30.2365L28.7845 8.992L27.2845 13H25.4845L23.1565 6.544H24.9205L26.4445 10.912L28.0285 6.544H29.6125L31.1485 10.912L32.7205 6.544H34.3765Z" fill="#BF8148"/>
</svg>
