<svg width="40" height="36" viewBox="0 0 40 36" fill="none" xmlns="http://www.w3.org/2000/svg">
<path d="M20 35.6249C19.809 35.6219 19.6218 35.5703 19.4563 35.4749C19.25 35.3811 14.6 32.7374 9.875 28.4999C3.40625 22.6686 0.125003 16.8749 0.125003 11.2499C0.123302 8.92261 0.868245 6.65616 2.25033 4.7837C3.63241 2.91124 5.57873 1.53155 7.8032 0.847423C10.0277 0.163297 12.4129 0.210826 14.6084 0.983026C16.8038 1.75523 18.6936 3.21136 20 5.13739C21.3064 3.21136 23.1962 1.75523 25.3917 0.983026C27.5871 0.210826 29.9724 0.163297 32.1968 0.847423C34.4213 1.53155 36.3676 2.91124 37.7497 4.7837C39.1318 6.65616 39.8767 8.92261 39.875 11.2499C39.875 16.8749 36.5938 22.6686 30.125 28.4999C25.4 32.7374 20.75 35.3811 20.5438 35.4749C20.3782 35.5703 20.1911 35.6219 20 35.6249V35.6249ZM11 2.62489C8.71251 2.62489 6.51871 3.53359 4.90121 5.15109C3.28371 6.7686 2.375 8.9624 2.375 11.2499C2.375 21.9936 16.9625 31.3686 20 33.1874C23.0375 31.3686 37.625 21.9936 37.625 11.2499C37.6294 9.25277 36.9405 7.31602 35.6761 5.77018C34.4116 4.22433 32.6499 3.1652 30.6915 2.77353C28.7332 2.38186 26.6996 2.68193 24.9379 3.62253C23.1761 4.56313 21.7953 6.08596 21.0313 7.93114C20.9505 8.13903 20.8089 8.31767 20.6248 8.44364C20.4408 8.5696 20.223 8.637 20 8.637C19.777 8.637 19.5592 8.5696 19.3752 8.44364C19.1911 8.31767 19.0495 8.13903 18.9688 7.93114C18.3131 6.35847 17.2064 5.01521 15.7882 4.07086C14.37 3.1265 12.7039 2.62335 11 2.62489V2.62489Z" fill="white"/>
</svg>
