<svg width="22" height="16" viewBox="0 0 22 16" fill="none" xmlns="http://www.w3.org/2000/svg">
<path d="M21.5096 0.401139C21.7664 0.658321 21.9107 1.00694 21.9107 1.37043C21.9107 1.73391 21.7664 2.08254 21.5096 2.33972L8.25042 15.5989C7.99324 15.8557 7.64461 16 7.28113 16C6.91765 16 6.56902 15.8557 6.31184 15.5989L0.368088 9.65511C0.125932 9.39493 -0.00593382 9.05101 0.000205116 8.69564C0.00634405 8.34026 0.15001 8.0011 0.401007 7.74945C0.652662 7.49845 0.991821 7.35479 1.3472 7.34865C1.70257 7.34251 2.04649 7.47437 2.30667 7.71653L7.28113 12.691L19.571 0.401139C19.8282 0.144277 20.1768 0 20.5403 0C20.9038 0 21.2524 0.144277 21.5096 0.401139Z" fill="#ABAAAA"/>
</svg>
