<svg width="48" height="48" viewBox="0 0 48 48" fill="none" xmlns="http://www.w3.org/2000/svg">
<g clip-path="url(#clip0_207_369)">
<path fill-rule="evenodd" clip-rule="evenodd" d="M8 3.2C6.72696 3.2 5.50606 3.70571 4.60589 4.60589C3.70571 5.50606 3.2 6.72696 3.2 8V16H0V8C0 5.87827 0.842855 3.84344 2.34315 2.34315C3.84344 0.842855 5.87827 0 8 0L16 0V3.2H8ZM40 3.2H32V0H40C42.1217 0 44.1566 0.842855 45.6569 2.34315C47.1571 3.84344 48 5.87827 48 8V16H44.8V8C44.8 6.72696 44.2943 5.50606 43.3941 4.60589C42.4939 3.70571 41.273 3.2 40 3.2ZM41.6 25.6H6.4V22.4H41.6V25.6ZM0 40V32H3.2V40C3.2 41.273 3.70571 42.4939 4.60589 43.3941C5.50606 44.2943 6.72696 44.8 8 44.8H16V48H8C5.87827 48 3.84344 47.1571 2.34315 45.6569C0.842855 44.1566 0 42.1217 0 40ZM44.8 40V32H48V40C48 42.1217 47.1571 44.1566 45.6569 45.6569C44.1566 47.1571 42.1217 48 40 48H32V44.8H40C41.273 44.8 42.4939 44.2943 43.3941 43.3941C44.2943 42.4939 44.8 41.273 44.8 40Z" fill="#BF8148"/>
</g>
<defs>
<clipPath id="clip0_207_369">
<rect width="48" height="48" fill="white"/>
</clipPath>
</defs>
</svg>
