<svg width="28" height="28" viewBox="0 0 28 28" fill="none" xmlns="http://www.w3.org/2000/svg">
<path d="M11.5553 3.756C12.126 1.41467 15.4722 1.41467 16.0429 3.756C16.1285 4.10773 16.2964 4.43437 16.5328 4.70933C16.7692 4.98429 17.0675 5.19981 17.4034 5.33833C17.7393 5.47685 18.1034 5.53447 18.4659 5.50649C18.8284 5.47852 19.1791 5.36574 19.4896 5.17733C21.5565 3.924 23.9235 6.27867 22.6644 8.33733C22.4753 8.64621 22.3622 8.99512 22.3342 9.3557C22.3061 9.71628 22.364 10.0784 22.503 10.4125C22.642 10.7467 22.8582 11.0434 23.1342 11.2787C23.4101 11.514 23.7379 11.6812 24.091 11.7667C26.4433 12.3347 26.4433 15.6653 24.091 16.2333C23.7376 16.3186 23.4094 16.4856 23.1332 16.7209C22.857 16.9563 22.6404 17.2532 22.5013 17.5875C22.3621 17.9219 22.3042 18.2842 22.3323 18.645C22.3604 19.0059 22.4737 19.355 22.663 19.664C23.9222 21.7213 21.5565 24.0773 19.4882 22.824C19.1779 22.6359 18.8274 22.5233 18.4651 22.4954C18.1029 22.4674 17.7391 22.525 17.4034 22.6634C17.0677 22.8017 16.7695 23.017 16.5331 23.2916C16.2967 23.5663 16.1287 23.8926 16.0429 24.244C15.4722 26.5853 12.126 26.5853 11.5553 24.244C11.4697 23.8923 11.3019 23.5656 11.0655 23.2907C10.829 23.0157 10.5307 22.8002 10.1948 22.6617C9.8589 22.5232 9.49488 22.4655 9.13236 22.4935C8.76985 22.5215 8.4191 22.6343 8.10865 22.8227C6.0417 24.076 3.67469 21.7213 4.93388 19.6627C5.1229 19.3538 5.23602 19.0049 5.26406 18.6443C5.29211 18.2837 5.23427 17.9216 5.09526 17.5875C4.95625 17.2533 4.74 16.9566 4.46406 16.7213C4.18813 16.486 3.86031 16.3188 3.50725 16.2333C1.15497 15.6653 1.15497 12.3347 3.50725 11.7667C3.86062 11.6814 4.18879 11.5144 4.46504 11.2791C4.74128 11.0437 4.9578 10.7468 5.09697 10.4125C5.23614 10.0781 5.29403 9.71578 5.26592 9.35495C5.23781 8.99413 5.12451 8.645 4.93522 8.336C3.67603 6.27867 6.0417 3.92267 8.10999 5.176C9.44955 5.98667 11.1856 5.26933 11.5553 3.756Z" stroke="#003441" stroke-width="2.5" stroke-linecap="round" stroke-linejoin="round"/>
<path d="M9.7804 14C9.7804 15.0609 10.2038 16.0783 10.9574 16.8284C11.7111 17.5786 12.7333 18 13.7991 18C14.8649 18 15.8871 17.5786 16.6407 16.8284C17.3944 16.0783 17.8178 15.0609 17.8178 14C17.8178 12.9391 17.3944 11.9217 16.6407 11.1716C15.8871 10.4214 14.8649 10 13.7991 10C12.7333 10 11.7111 10.4214 10.9574 11.1716C10.2038 11.9217 9.7804 12.9391 9.7804 14Z" stroke="#003441" stroke-width="2.5" stroke-linecap="round" stroke-linejoin="round"/>
</svg>
