<svg width="48" height="48" viewBox="0 0 48 48" fill="none" xmlns="http://www.w3.org/2000/svg">
<path d="M4 28V20C4 19.4696 4.21071 18.9609 4.58579 18.5858C4.96086 18.2107 5.46957 18 6 18H11.394C11.7891 18.0001 12.1753 17.8832 12.504 17.664L20.89 12.072C21.1915 11.8709 21.542 11.7554 21.904 11.738C22.266 11.7206 22.6259 11.8019 22.9453 11.9732C23.2647 12.1445 23.5315 12.3994 23.7173 12.7106C23.9031 13.0218 24.0008 13.3776 24 13.74V34.26C24.0001 34.6221 23.9018 34.9774 23.7157 35.288C23.5297 35.5987 23.2628 35.8529 22.9435 36.0238C22.6243 36.1946 22.2646 36.2755 21.903 36.258C21.5413 36.2404 21.1912 36.125 20.89 35.924L12.504 30.334C12.1751 30.1156 11.7889 29.9993 11.394 30H6C5.46957 30 4.96086 29.7893 4.58579 29.4142C4.21071 29.0392 4 28.5305 4 28V28Z" stroke="white" stroke-width="1.5"/>
<path d="M33 15C33 15 36 18 36 23C36 28 33 31 33 31M39 9C39 9 44 14 44 23C44 32 39 37 39 37" stroke="white" stroke-width="1.5" stroke-linecap="round" stroke-linejoin="round"/>
</svg>
