<svg width="29" height="33" viewBox="0 0 29 33" fill="none" xmlns="http://www.w3.org/2000/svg">
<path d="M11.5192 2.53566H17.579C17.8469 2.53566 18.1037 2.6417 18.2931 2.83046C18.4826 3.01921 18.589 3.27521 18.589 3.54214V5.5551H10.5093V3.54214C10.5093 3.27521 10.6157 3.01921 10.8051 2.83046C10.9945 2.6417 11.2514 2.53566 11.5192 2.53566ZM20.6089 5.5551V3.54214C20.6089 2.74134 20.2897 1.97333 19.7214 1.40708C19.1532 0.840824 18.3826 0.522705 17.579 0.522705L11.5192 0.522705C10.7157 0.522705 9.945 0.840824 9.37678 1.40708C8.80857 1.97333 8.48935 2.74134 8.48935 3.54214V5.5551H3.45167C3.44494 5.55504 3.4382 5.55504 3.43147 5.5551H1.41963C1.15177 5.5551 0.894883 5.66114 0.705479 5.84989C0.516074 6.03865 0.409668 6.29465 0.409668 6.56158C0.409668 6.82852 0.516074 7.08452 0.705479 7.27327C0.894883 7.46202 1.15177 7.56806 1.41963 7.56806H2.50635L4.22934 29.0262C4.31059 30.0351 4.77018 30.9765 5.51658 31.6628C6.26299 32.3492 7.24143 32.7303 8.25706 32.73H20.8412C21.8568 32.7303 22.8352 32.3492 23.5816 31.6628C24.3281 30.9765 24.7876 30.0351 24.8689 29.0262L26.5919 7.56806H27.6786C27.9465 7.56806 28.2034 7.46202 28.3928 7.27327C28.5822 7.08452 28.6886 6.82852 28.6886 6.56158C28.6886 6.29465 28.5822 6.03865 28.3928 5.84989C28.2034 5.66114 27.9465 5.5551 27.6786 5.5551H25.6688C25.6621 5.55505 25.6553 5.55505 25.6486 5.5551H20.6089ZM24.5639 7.56806L22.855 28.8652C22.8144 29.3696 22.5846 29.8403 22.2114 30.1835C21.8382 30.5267 21.349 30.7172 20.8412 30.7171H8.25706C7.74925 30.7172 7.26002 30.5267 6.88682 30.1835C6.51362 29.8403 6.28383 29.3696 6.2432 28.8652L4.53435 7.56806H24.5639ZM9.44074 9.58102C9.70804 9.56562 9.97054 9.65663 10.1705 9.83404C10.3705 10.0115 10.4916 10.2607 10.5073 10.5271L11.5172 27.6373C11.5278 27.9005 11.4344 28.1574 11.2571 28.3528C11.0797 28.5482 10.8326 28.6665 10.5687 28.6823C10.3048 28.6981 10.0452 28.6102 9.84562 28.4374C9.64606 28.2646 9.52245 28.0207 9.50133 27.758L8.48935 10.6479C8.48115 10.5157 8.49923 10.3831 8.54254 10.2579C8.58585 10.1326 8.65355 10.0171 8.74175 9.91801C8.82995 9.8189 8.93692 9.73811 9.05652 9.68028C9.17612 9.62245 9.306 9.58872 9.43872 9.58102H9.44074ZM19.6575 9.58102C19.7902 9.58872 19.9201 9.62245 20.0397 9.68028C20.1593 9.73811 20.2663 9.8189 20.3545 9.91801C20.4427 10.0171 20.5104 10.1326 20.5537 10.2579C20.597 10.3831 20.6151 10.5157 20.6069 10.6479L19.5969 27.758C19.5915 27.8918 19.5594 28.0231 19.5025 28.1444C19.4455 28.2656 19.3649 28.3743 19.2652 28.4641C19.1656 28.5539 19.049 28.623 18.9223 28.6673C18.7956 28.7116 18.6612 28.7303 18.5271 28.7223C18.3931 28.7143 18.2619 28.6797 18.1414 28.6205C18.021 28.5614 17.9135 28.4789 17.8254 28.3778C17.7373 28.2768 17.6703 28.1592 17.6283 28.0321C17.5864 27.9049 17.5703 27.7707 17.581 27.6373L18.591 10.5271C18.6066 10.2607 18.7277 10.0115 18.9277 9.83404C19.1277 9.65663 19.3902 9.56562 19.6575 9.58102ZM14.5491 9.58102C14.817 9.58102 15.0739 9.68706 15.2633 9.87581C15.4527 10.0646 15.5591 10.3206 15.5591 10.5875V27.6977C15.5591 27.9646 15.4527 28.2206 15.2633 28.4093C15.0739 28.5981 14.817 28.7041 14.5491 28.7041C14.2813 28.7041 14.0244 28.5981 13.835 28.4093C13.6456 28.2206 13.5392 27.9646 13.5392 27.6977V10.5875C13.5392 10.3206 13.6456 10.0646 13.835 9.87581C14.0244 9.68706 14.2813 9.58102 14.5491 9.58102Z" fill="white"/>
</svg>
