<svg width="47" height="46" viewBox="0 0 47 46" fill="none" xmlns="http://www.w3.org/2000/svg">
<g clip-path="url(#clip0_12_540)">
<path d="M23.4999 0.920044C11.0402 0.920044 0.939941 10.8054 0.939941 23C0.939941 35.1946 11.0402 45.08 23.4999 45.08C35.9596 45.08 46.0599 35.1946 46.0599 23C46.0599 10.8054 35.9596 0.920044 23.4999 0.920044ZM32.6767 19.0072C32.6861 19.1958 32.6884 19.3844 32.6884 19.5684C32.6884 25.3184 28.2211 31.9447 20.0478 31.9447C17.6327 31.9487 15.2678 31.2698 13.2375 29.9897C13.5829 30.0311 13.9378 30.0472 14.2973 30.0472C16.3794 30.0472 18.2947 29.3549 19.8151 28.1865C18.8886 28.1687 17.9908 27.8685 17.2469 27.3275C16.5029 26.7866 15.95 26.032 15.665 25.1689C16.3305 25.2928 17.0159 25.2668 17.6696 25.093C16.6639 24.894 15.7595 24.3607 15.1098 23.5835C14.46 22.8063 14.1049 21.8331 14.1046 20.8288V20.7759C14.7039 21.1002 15.3901 21.298 16.1186 21.321C15.1758 20.7068 14.5083 19.7632 14.2528 18.6833C13.9973 17.6033 14.1729 16.4686 14.7438 15.5112C15.86 16.8544 17.2519 17.9533 18.8295 18.7366C20.4071 19.5199 22.1351 19.9702 23.9018 20.0583C23.6772 19.1253 23.7739 18.1457 24.1768 17.2719C24.5797 16.3981 25.2663 15.6791 26.1298 15.2267C26.9933 14.7742 27.9853 14.6136 28.9517 14.7699C29.9181 14.9262 30.8046 15.3906 31.4735 16.0908C32.4679 15.8983 33.4216 15.5413 34.2935 15.0351C33.9621 16.0429 33.2681 16.8985 32.3406 17.4432C33.2215 17.3394 34.0817 17.1076 34.8927 16.7555C34.297 17.6293 33.5465 18.3919 32.6767 19.0072Z" fill="white"/>
</g>
<defs>
<clipPath id="clip0_12_540">
<rect width="47" height="46" fill="white"/>
</clipPath>
</defs>
</svg>
