<svg width="194" height="167" viewBox="0 0 194 167" fill="none" xmlns="http://www.w3.org/2000/svg">
<path d="M182.667 22.8333H91.3333C53.5555 22.8333 22.8333 53.5556 22.8333 91.3333V239.75C22.8333 242.778 24.0361 245.682 26.1771 247.823C28.3182 249.964 31.222 251.167 34.2499 251.167H182.667C220.444 251.167 251.167 220.444 251.167 182.667V91.3333C251.167 53.5556 220.444 22.8333 182.667 22.8333ZM228.333 182.667C228.333 207.852 207.852 228.333 182.667 228.333H45.6666V91.3333C45.6666 66.1482 66.1481 45.6667 91.3333 45.6667H182.667C207.852 45.6667 228.333 66.1482 228.333 91.3333V182.667Z" fill="white" fill-opacity="0.1"/>
<path d="M125.583 68.5H148.417V159.833H125.583V68.5ZM125.583 182.667H148.417V205.5H125.583V182.667Z" fill="white" fill-opacity="0.1"/>
</svg>
