<svg width="27" height="27" viewBox="0 0 27 27" fill="none" xmlns="http://www.w3.org/2000/svg">
<path d="M1.92971 9.69759H24.4344M1.92971 17.7494H24.4344M1.12598 13.7235C1.12598 15.3096 1.43782 16.8801 2.04369 18.3455C2.64956 19.8108 3.53761 21.1422 4.65712 22.2638C5.77663 23.3853 7.10568 24.2749 8.56839 24.8819C10.0311 25.4889 11.5988 25.8013 13.1821 25.8013C14.7653 25.8013 16.333 25.4889 17.7957 24.8819C19.2584 24.2749 20.5875 23.3853 21.707 22.2638C22.8265 21.1422 23.7145 19.8108 24.3204 18.3455C24.9263 16.8801 25.2381 15.3096 25.2381 13.7235C25.2381 12.1374 24.9263 10.5669 24.3204 9.10155C23.7145 7.63621 22.8265 6.30477 21.707 5.18324C20.5875 4.06172 19.2584 3.17208 17.7957 2.56512C16.333 1.95815 14.7653 1.64575 13.1821 1.64575C11.5988 1.64575 10.0311 1.95815 8.56839 2.56512C7.10568 3.17208 5.77663 4.06172 4.65712 5.18324C3.53761 6.30477 2.64956 7.63621 2.04369 9.10155C1.43782 10.5669 1.12598 12.1374 1.12598 13.7235Z" stroke="#003441" stroke-width="2" stroke-linecap="round" stroke-linejoin="round"/>
<path d="M12.5117 1.64575C10.255 5.26856 9.05859 9.45317 9.05859 13.7235C9.05859 17.9938 10.255 22.1785 12.5117 25.8013M13.8513 1.64575C16.108 5.26856 17.3044 9.45317 17.3044 13.7235C17.3044 17.9938 16.108 22.1785 13.8513 25.8013" stroke="#003441" stroke-width="2" stroke-linecap="round" stroke-linejoin="round"/>
</svg>
